<svg viewBox="0 0 160 48" fill="none" xmlns="http://www.w3.org/2000/svg">
<g clip-path="url(#clip0)">
<path d="M24.16 47.2237C37.0506 47.2237 47.5437 36.8065 47.5437 23.9974C47.5437 11.1883 37.0559 0.776367 24.16 0.776367C11.2693 0.776367 0.776245 11.1936 0.776245 24.0027C0.776245 36.8118 11.2693 47.2237 24.16 47.2237ZM2.5559 23.9974C2.5559 12.1692 12.2516 2.54404 24.16 2.54404C36.0736 2.54404 45.764 12.1692 45.764 24.0027C45.764 35.8361 36.0736 45.4613 24.16 45.4613C12.2516 45.4561 2.5559 35.8309 2.5559 23.9974Z" fill="#061F4E"/>
<path d="M48.3253 23.9974C48.3253 10.7634 37.4837 0 24.16 0C10.8416 0 0 10.7634 0 23.9974C0 37.2313 10.8416 47.9948 24.16 47.9948C37.4837 48 48.3253 37.2313 48.3253 23.9974ZM0.390785 23.9974C0.390785 10.9575 11.0318 0.388154 24.16 0.388154C37.2883 0.388154 47.9345 10.9575 47.9345 23.9974C47.9345 37.0373 37.2936 47.6118 24.16 47.6118C11.0318 47.6118 0.390785 37.0425 0.390785 23.9974Z" fill="#F2D579"/>
<path d="M24.16 47.6119C37.2882 47.6119 47.9345 37.0425 47.9345 23.9974C47.9345 10.9523 37.2935 0.388184 24.16 0.388184C11.0317 0.388184 0.390747 10.9575 0.390747 23.9974C0.390747 37.0373 11.0317 47.6119 24.16 47.6119ZM0.781532 23.9974C0.781532 11.1936 11.2694 0.771093 24.1653 0.771093C37.0559 0.771093 47.549 11.1883 47.549 23.9974C47.549 36.8065 37.0559 47.2237 24.16 47.2237C11.2694 47.2237 0.781532 36.8065 0.781532 23.9974Z" fill="#F2D579"/>
<path d="M20.738 33.9531L22.3751 34.892L22.0583 32.5474L20.775 32.5788L20.738 33.9531Z" fill="#3B4D80"/>
<path d="M22.4067 36.707L20.6904 35.7314L20.6323 37.9607C21.0548 38.0918 21.3981 38.4275 21.5195 38.8786C21.7096 39.5867 21.2872 40.3158 20.5742 40.5047C19.8613 40.6935 19.1273 40.2739 18.9372 39.5657C18.7471 38.8576 19.1695 38.1285 19.8825 37.9397C19.9194 37.9292 19.9564 37.9292 19.9933 37.9187L18.9372 36.2087L17.9761 37.882L16.603 37.1214L17.9972 34.6928L17.2631 33.5074L16.0591 34.1578L16.0644 36.9798L14.4907 36.9588L14.4801 35.0023L12.3783 36.1353C12.748 36.6546 12.7005 37.3732 12.2357 37.84C11.7129 38.3593 10.868 38.3593 10.3452 37.84C9.82238 37.3207 9.82238 36.4815 10.3452 35.9622C10.8099 35.5006 11.5281 35.4534 12.0456 35.8101L13.181 33.7329L11.2482 33.7434L11.2271 32.1803L14.0365 32.1698L14.6966 30.9634L13.519 30.2448L11.0898 31.6505L10.3241 30.2868L12.0034 29.3111L10.1815 28.2044C10.1815 28.3093 10.1709 28.4142 10.1392 28.5191C9.94912 29.2272 9.21508 29.6468 8.50216 29.458C7.78924 29.2692 7.36677 28.5401 7.55688 27.8372C7.74699 27.1291 8.48104 26.7094 9.19395 26.8983C9.5953 27.0032 9.90159 27.2864 10.06 27.6326L12.4892 27.5697L11.507 25.8964L12.0298 25.5869L3.34802 24.4067C3.56454 35.4744 12.5737 44.4386 23.7111 44.6747L22.581 36.4133L22.4067 36.707Z" fill="#3B4D80"/>
<path d="M15.6472 27.4857L15.6841 26.0905L15.6577 26.08L13.2444 25.7495L14.2847 27.5172L15.6472 27.4857Z" fill="#3B4D80"/>
<path d="M13.1969 33.7329L12.0615 35.8101C12.1302 35.8573 12.1935 35.9045 12.2516 35.9622C12.3044 36.0146 12.352 36.0776 12.3942 36.1353L14.496 35.0023L14.4907 33.7224L13.1969 33.7329Z" fill="#939ABC"/>
<path d="M18.9425 36.2138L19.9987 37.9238C20.2152 37.8871 20.4317 37.8976 20.6324 37.9605L20.6905 35.7312L19.5762 35.1018L18.9425 36.2138Z" fill="#939ABC"/>
<path d="M21.171 30.8321L21.7783 30.4859L21.4245 27.9052L20.4 27.9105V26.725L17.881 26.3841L17.4639 27.1132L15.6895 26.1008L15.6525 27.4908L14.29 27.5276L15.2987 29.2428L13.5402 30.2551L14.7178 30.9737L14.0577 32.1802L16.075 32.1697L16.0803 34.1681L17.2843 33.5177L18.0183 34.7032L19.0164 32.967L20.7538 33.9583L20.7908 32.5841L22.0688 32.5526L22.0318 32.2903L21.171 30.8321ZM16.7351 31.4144L17.6698 27.9524L20.2205 30.4859L16.7351 31.4144Z" fill="#939ABC"/>
<path d="M12.4945 27.5642L10.0653 27.6272C10.1498 27.8055 10.192 27.9996 10.1868 28.2041L12.0087 29.3109L13.1441 28.6552L12.4945 27.5642Z" fill="#939ABC"/>
<path d="M10.0654 27.6326C9.90697 27.2864 9.60068 27.0032 9.19933 26.8983C8.48641 26.7094 7.75237 27.1291 7.56226 27.8372C7.37215 28.5453 7.79462 29.2691 8.50753 29.458C9.22045 29.6468 9.95449 29.2272 10.1446 28.5191C10.171 28.4142 10.1816 28.3093 10.1869 28.2043L9.27326 27.6483L10.0654 27.6326Z" fill="#939ABC"/>
<path d="M9.27319 27.6536L10.1868 28.2096C10.1921 28.005 10.1445 27.8109 10.0653 27.6326L9.27319 27.6536Z" fill="#939ABC"/>
<path d="M12.0615 35.8152C11.5387 35.4585 10.8205 35.511 10.3611 35.9673C9.83829 36.4866 9.83829 37.3259 10.3611 37.8451C10.8839 38.3644 11.7288 38.3644 12.2517 37.8451C12.7217 37.3783 12.7639 36.6597 12.3942 36.1404L11.6708 36.5286L12.0615 35.8152Z" fill="#939ABC"/>
<path d="M12.0616 35.8152L11.6708 36.5338L12.3943 36.1456C12.352 36.0879 12.3045 36.025 12.2517 35.9725C12.1883 35.9096 12.1249 35.8571 12.0616 35.8152Z" fill="#939ABC"/>
<path d="M19.9987 37.9238C19.9617 37.9291 19.9248 37.9343 19.8878 37.9448C19.1749 38.1336 18.7524 38.8627 18.9425 39.5709C19.1326 40.279 19.8667 40.6986 20.5796 40.5098C21.2925 40.3209 21.715 39.5918 21.5249 38.8837C21.4034 38.4274 21.0549 38.0969 20.6377 37.9658L20.6113 38.9152L19.9987 37.9238Z" fill="#939ABC"/>
<path d="M19.9987 37.924L20.606 38.9101L20.6324 37.9607C20.4317 37.8977 20.2152 37.8872 19.9987 37.924Z" fill="#939ABC"/>
<path d="M16.6084 37.1213L17.9814 37.8872L18.9425 36.2139L18.0025 34.698L16.6084 37.1213Z" fill="#939ABC"/>
<path d="M20.6904 35.7313L22.4067 36.7069L22.5863 36.4132L22.375 34.892L20.738 33.9531L20.6904 35.7313Z" fill="#939ABC"/>
<path d="M19.0006 32.9617L18.0026 34.6979L18.9426 36.2138L19.5815 35.1018L20.6905 35.7312L20.7381 33.953L19.0006 32.9617Z" fill="#939ABC"/>
<path d="M22.0212 32.2852L21.773 30.4861L21.171 30.8323L22.0212 32.2852Z" fill="#939ABC"/>
<path d="M21.2767 26.8404L20.3948 26.7197V27.9052L21.4193 27.8999L21.2767 26.8404Z" fill="#939ABC"/>
<path d="M15.6846 26.0798H15.6578L15.6846 26.0906V26.0798Z" fill="#939ABC"/>
<path d="M15.6842 26.0903L17.4586 27.1079L17.8758 26.3788L15.6842 26.0798V26.0903Z" fill="#939ABC"/>
<path d="M13.2445 25.7495L12.0299 25.5869L11.5123 25.8911L12.4946 27.5644L14.2848 27.5172L13.2445 25.7495Z" fill="#939ABC"/>
<path d="M10.3241 30.2918L11.0898 31.6503L13.5296 30.2446L12.0034 29.3162L10.3241 30.2918Z" fill="#939ABC"/>
<path d="M14.2848 27.5171L12.4945 27.5643L13.1388 28.6606L12.0034 29.3162L13.5296 30.2447L15.2934 29.2323L14.2848 27.5171Z" fill="#939ABC"/>
<path d="M14.5013 36.9639L16.0697 36.9848V34.1628L14.4907 35.0073L14.5013 36.9639Z" fill="#939ABC"/>
<path d="M11.2377 32.1854L11.2588 33.7433L13.1969 33.7328L14.0471 32.1697L11.2377 32.1854Z" fill="#939ABC"/>
<path d="M14.0471 32.1697L13.1969 33.7328L14.4854 33.7275L14.4907 35.0074L16.0697 34.1629L16.0644 32.1592L14.0471 32.1697Z" fill="#939ABC"/>
<path d="M26.3252 8.9749C26.9483 10.0659 26.3093 10.1918 27.1543 12.0959C26.8797 10.0764 28.6804 10.4069 28.7966 6.18439C29.3828 7.10757 29.6944 7.70029 29.8792 8.77558C30.0904 10.0135 29.4409 9.91382 29.5835 11.9857C30.0218 9.9925 31.6008 10.9157 33.1639 6.99217C33.3963 8.06222 33.486 8.71788 33.2854 9.79842C33.0583 11.0363 32.4827 10.7216 31.9018 12.7148C33.0002 10.9891 34.1673 12.3949 36.9873 9.23717C36.8394 10.323 36.6915 10.9681 36.137 11.9123C35.4981 12.9981 35.065 12.505 33.8293 14.1835C35.4558 12.9351 36.0684 14.6556 39.802 12.6414C39.2897 13.6118 38.9306 14.1678 38.0804 14.8654C37.1034 15.6679 36.8711 15.0595 35.1337 16.2187C37.0929 15.5998 37.0718 17.4199 41.2806 16.8009C40.4674 17.5353 39.934 17.9392 38.8989 18.3063C37.7055 18.726 37.6949 18.0755 35.6618 18.5739C37.716 18.6578 37.0718 20.3625 41.2331 21.207C40.2139 21.6214 39.5749 21.8207 38.4765 21.8155C37.2091 21.805 37.4256 21.1913 35.3449 20.9657C36.211 21.3172 36.4381 21.7997 36.7655 22.4239L44.9772 23.5359C44.7343 12.4998 35.7357 3.56172 24.6089 3.32568L25.1792 7.53244C25.6228 7.93108 25.9661 8.34022 26.3252 8.9749Z" fill="#D19013"/>
<path d="M28.6646 13.6853C31.5532 13.6853 33.898 16.0142 33.898 18.8834C33.898 20.0164 33.5283 21.0655 32.9051 21.9204L36.7602 22.4397C36.4328 21.8103 36.2057 21.333 35.3396 20.9815C37.4203 21.2018 37.2038 21.8208 38.4712 21.8313C39.5749 21.8365 40.2086 21.6372 41.2278 21.2228C37.0665 20.3783 37.7107 18.6683 35.6565 18.5897C37.6896 18.0914 37.7002 18.7418 38.8937 18.3222C39.934 17.955 40.4621 17.5511 41.2753 16.8167C37.0718 17.4357 37.0876 15.6156 35.1284 16.2345C36.8658 15.0753 37.1034 15.6838 38.0751 14.8812C38.9253 14.1836 39.2844 13.6223 39.7967 12.6572C36.0578 14.6662 35.4505 12.9509 33.824 14.1993C35.0597 12.5208 35.4875 13.0139 36.1318 11.9281C36.6863 10.9839 36.8341 10.3388 36.982 9.25298C34.162 12.4107 32.9949 11.0049 31.8965 12.7306C32.4774 10.7322 33.053 11.0521 33.2801 9.81423C33.4808 8.73893 33.391 8.07802 33.1586 7.00798C31.5955 10.9315 30.0165 10.0083 29.5782 12.0015C29.4356 9.92962 30.0852 10.0293 29.8739 8.79139C29.6891 7.71085 29.3828 7.12337 28.7913 6.2002C28.6752 10.4174 26.8691 10.087 27.149 12.1117C26.3041 10.2129 26.9483 10.087 26.3199 8.99071C25.9555 8.35603 25.6175 7.94689 25.174 7.54825L26.1034 14.3672C26.8638 13.9318 27.7352 13.6853 28.6646 13.6853Z" fill="#F2D579"/>
<path d="M32.9051 21.9202C33.5283 21.0652 33.8979 20.0214 33.8979 18.8832C33.8979 16.014 31.5532 13.6851 28.6646 13.6851C27.7352 13.6851 26.8638 13.9263 26.1086 14.3512L27.0328 21.1229L32.9051 21.9202Z" fill="#D19013"/>
<path d="M9.16755 21.6529C10.8363 20.4989 12.843 19.796 15.024 19.7226C16.9832 19.6544 18.8368 20.1055 20.4581 20.9447C19.7451 20.2681 19.0481 19.6282 18.3668 19.0354C17.749 19.3974 17.0361 19.3974 16.6189 18.983C16.5766 18.9358 16.5344 18.8886 16.4974 18.8361C14.8445 19.3134 12.7902 18.7732 11.2641 17.2835C11.1796 17.1996 11.132 17.1524 11.0845 17.1052C9.98608 15.9407 9.46328 14.4353 9.50553 12.9404C10.6884 12.7568 12.0087 12.8407 13.1546 13.3705C13.2972 13.6642 13.4767 13.9422 13.6933 14.2045C14.6649 15.369 15.6894 15.9722 17.1258 15.9145C16.0168 15.5683 14.8709 14.9441 14.0471 13.8426C13.9943 13.7744 13.9573 13.7167 13.9203 13.6642C13.0701 12.4211 12.8483 10.858 13.0596 9.45747L13.0754 9.42075C14.5804 9.33683 16.1013 9.85612 17.279 10.9524C17.3265 10.9996 17.374 11.0416 17.4216 11.0888C18.9689 12.6519 19.5181 14.7395 19.0005 16.3918C19.0428 16.4233 19.0798 16.4547 19.1167 16.4915C19.5181 16.8901 19.5339 17.5615 19.2065 18.1595C19.8085 18.8414 20.4633 19.5442 21.1499 20.2576C20.2996 18.6473 19.8455 16.8009 19.9141 14.8497C19.9881 12.6833 20.701 10.6901 21.8575 9.0326C22.1849 9.57287 22.4542 10.1499 22.6813 10.7426L23.7111 3.32568C12.5737 3.56172 3.56982 12.5207 3.34802 23.5884L11.0423 22.5288C10.3874 22.2928 9.75901 22.0043 9.16755 21.6529ZM12.7057 10.795C12.6476 11.4402 12.711 12.1326 12.9275 12.7883C12.2727 12.5784 11.5862 12.5155 10.9472 12.568C10.7201 11.8965 10.6145 11.1937 10.6356 10.4908C11.3327 10.4698 12.0351 10.5695 12.7057 10.795Z" fill="#234502"/>
<path d="M12.9276 12.7882C12.7111 12.1326 12.6477 11.4402 12.7058 10.795C12.0351 10.5695 11.3328 10.4698 10.6357 10.4908C10.6146 11.1936 10.7149 11.8965 10.9473 12.5679C11.5862 12.5155 12.2728 12.5784 12.9276 12.7882Z" fill="#8B9C41"/>
<path d="M14.2003 21.8102C14.0102 21.1021 14.4327 20.373 15.1456 20.1842C15.8585 19.9953 16.5925 20.415 16.7827 21.1231C16.8407 21.3329 16.8355 21.5374 16.7932 21.7368L21.2767 21.1178L22.6972 10.7373C22.4702 10.1394 22.1955 9.56761 21.8734 9.02734C20.7116 10.6849 20.004 12.6781 19.9301 14.8444C19.8614 16.7904 20.3156 18.6368 21.1658 20.2523C20.474 19.539 19.8244 18.8361 19.2224 18.1542C19.5498 17.5562 19.534 16.8848 19.1326 16.4862C19.0957 16.4495 19.0587 16.418 19.0165 16.3865C19.534 14.729 18.9901 12.6466 17.4375 11.0835C17.39 11.0363 17.3424 10.9891 17.2949 10.9471C16.1173 9.85086 14.5964 9.33157 13.0913 9.4155L13.0755 9.45222C12.8642 10.8527 13.0913 12.4106 13.9363 13.659C13.9732 13.7114 14.0102 13.7691 14.063 13.8373C14.8815 14.9388 16.0328 15.5683 17.1418 15.9092C15.7054 15.9669 14.6809 15.3637 13.7092 14.1992C13.4927 13.937 13.3131 13.659 13.1705 13.3652C12.0299 12.8407 10.7044 12.7515 9.52145 12.9351C9.47392 14.4248 10.002 15.9302 11.1004 17.0999C11.148 17.1471 11.1902 17.1943 11.28 17.2782C12.8062 18.7679 14.8604 19.3082 16.5133 18.8309C16.5503 18.8833 16.5873 18.9305 16.6348 18.9777C17.052 19.3921 17.7596 19.3921 18.3828 19.0302C19.0587 19.6229 19.7611 20.2628 20.474 20.9395C18.8528 20.1002 16.9992 19.6491 15.04 19.7173C12.859 19.796 10.8522 20.4989 9.18347 21.6476C9.77493 21.999 10.4034 22.2875 11.0582 22.5236L14.3218 22.0725C14.2637 21.999 14.2267 21.9099 14.2003 21.8102Z" fill="#8B9C41"/>
<path d="M15.8163 21.1544L16.2282 21.8206L16.7932 21.7419C16.8355 21.5426 16.8355 21.338 16.7827 21.1282C16.5926 20.4201 15.8585 20.0004 15.1456 20.1893C14.4327 20.3781 14.0102 21.1072 14.2003 21.8153C14.2267 21.9097 14.2637 21.9989 14.3059 22.0828L15.7951 21.8783L15.8163 21.1544Z" fill="#8B9C41"/>
<path d="M15.795 21.8784L16.2281 21.8154L15.8162 21.1545L15.795 21.8784Z" fill="#8B9C41"/>
<path d="M32.4932 26.1165C32.9526 26.8823 32.979 27.9838 32.979 27.9838C32.979 27.9838 34.1197 26.1322 36.4327 26.1322C37.1139 26.1322 37.246 26.919 37.246 26.919C37.246 26.919 38.5926 27.4121 38.8302 28.1989C39.0098 28.7864 38.4289 29.72 38.4289 29.72C38.4289 29.72 38.4078 29.8721 38.4078 30.5068C38.4078 31.6136 35.4505 31.6503 35.4505 31.6503C35.4505 31.6503 39.1893 32.7833 39.1893 34.766C39.1893 35.1542 38.4817 35.4689 38.4817 35.4689C38.4817 35.4689 39.2791 36.7697 38.1543 37.887C36.9502 39.0829 35.7092 38.2227 35.7092 38.2227C35.7092 38.2227 35.3924 38.9256 35.0016 38.9256C33.0741 38.9256 31.8647 35.2119 31.8647 35.2119C31.8647 35.2119 31.7908 38.1493 30.7135 38.1493C30.0745 38.1493 29.9214 38.1702 29.9214 38.1702C29.9214 38.1702 28.9761 38.7472 28.3847 38.5689C27.5925 38.3276 27.0961 36.99 27.0961 36.99C27.0961 36.99 26.304 36.8589 26.304 36.1823C26.304 35.3011 26.5786 34.5982 26.9113 34.0579C26.7687 34.0684 26.6261 34.0579 26.4835 34.0212C26.3515 33.9845 26.2353 33.9268 26.1244 33.8586L24.6194 44.6535C35.7409 44.4122 44.7395 35.4741 44.9719 24.4275L32.4932 26.1165Z" fill="#7E3430"/>
<path d="M28.9075 29.1117L27.0328 27.3965L26.6948 29.8303C27.6612 29.332 28.9075 29.1117 28.9075 29.1117Z" fill="#7E3430"/>
<path d="M29.293 28.7287C29.293 28.7287 29.5306 27.4174 30.0587 26.447L27.4922 26.7932L29.293 28.7287Z" fill="#7E3430"/>
<path d="M28.1629 32.7677C28.1523 32.7677 27.281 32.7467 26.5522 32.4268L26.3304 32.432L26.1298 33.8745C26.2407 33.9427 26.3568 34.0004 26.4889 34.0371C26.6314 34.0738 26.774 34.0843 26.9166 34.0738C27.45 33.2083 28.1523 32.7782 28.1629 32.7677Z" fill="#7E3430"/>
<path d="M26.3304 32.4321L26.5522 32.4268C26.4836 32.3953 26.4149 32.3639 26.3463 32.3271L26.3304 32.4321Z" fill="#7E3430"/>
<path d="M27.1067 26.8404L27.0275 27.3964L28.9022 29.1117C28.9022 29.1117 27.6559 29.332 26.6842 29.8303L26.4519 31.4826C26.679 31.4196 26.9219 31.4039 27.1701 31.4721C27.7721 31.6347 28.1629 32.1802 28.1523 32.7729C28.1523 32.8831 28.1418 32.988 28.1101 33.0981C27.9569 33.6646 27.4605 34.0423 26.9008 34.0737C26.5628 34.614 26.2935 35.3221 26.2935 36.1981C26.2935 36.8748 27.0856 37.0059 27.0856 37.0059C27.0856 37.0059 27.5873 38.3434 28.3741 38.5847C28.9656 38.7631 29.9109 38.1861 29.9109 38.1861C29.9109 38.1861 30.064 38.1651 30.703 38.1651C31.7856 38.1651 31.8542 35.2277 31.8542 35.2277C31.8542 35.2277 33.0635 38.9414 34.9911 38.9414C35.3818 38.9414 35.6987 38.2385 35.6987 38.2385C35.6987 38.2385 36.9397 39.0988 38.1437 37.9028C39.2686 36.7856 38.4712 35.4847 38.4712 35.4847C38.4712 35.4847 39.1788 35.17 39.1788 34.7819C39.1788 32.7991 35.4399 31.6661 35.4399 31.6661C35.4399 31.6661 38.3972 31.6242 38.3972 30.5227C38.3972 29.888 38.4184 29.7359 38.4184 29.7359C38.4184 29.7359 38.9993 28.8022 38.8197 28.2147C38.5821 27.4279 37.2354 26.9349 37.2354 26.9349C37.2354 26.9349 37.1034 26.1481 36.4222 26.1481C34.1092 26.1481 32.9685 27.9997 32.9685 27.9997C32.9685 27.9997 32.9421 26.8929 32.4826 26.1323L30.0534 26.4575C29.5201 27.4332 29.2877 28.7393 29.2877 28.7393L27.4922 26.7985L27.1067 26.8404ZM31.3156 31.1416V27.4699L31.8542 30.958C31.8542 30.958 32.5407 30.5384 33.7131 29.846C35.5984 28.734 36.6229 28.6711 36.6229 28.6711C36.6229 28.6711 34.933 29.5995 33.8451 30.2919C32.7572 30.9843 32.1922 31.5088 32.1922 31.5088L36.9186 36.6492L36.1317 35.9201L36.8922 36.6754L31.7169 31.9809C31.7169 31.9809 31.1888 32.5421 30.4918 33.6226C29.7947 34.7032 28.86 36.3817 28.86 36.3817C28.86 36.3817 28.9233 35.3641 30.0429 33.4915C30.7347 32.3323 31.1571 31.6452 31.1571 31.6452L27.6454 31.1101L31.3156 31.1416Z" fill="#C06E52"/>
<path d="M27.149 32.411L26.5469 32.4267C27.281 32.7467 28.147 32.7677 28.1576 32.7677C28.1629 32.175 27.7774 31.6295 27.1754 31.4669C26.9324 31.4039 26.6842 31.4144 26.4572 31.4773L26.3938 31.9494L27.149 32.411Z" fill="#C06E52"/>
<path d="M28.1207 33.0982C28.1524 32.988 28.1629 32.8779 28.1629 32.7729C28.1524 32.7782 27.45 33.2136 26.9114 34.0738C27.4659 34.0371 27.9676 33.6647 28.1207 33.0982Z" fill="#C06E52"/>
<path d="M26.3939 31.9495L26.3411 32.3271C26.4097 32.3638 26.4784 32.3953 26.547 32.4268L27.149 32.411L26.3939 31.9495Z" fill="#C06E52"/>
<path d="M27.6401 31.1207L31.1572 31.6557C31.1572 31.6557 30.7347 32.3376 30.0429 33.5021C28.9234 35.3747 28.86 36.3923 28.86 36.3923C28.86 36.3923 29.7947 34.7138 30.4918 33.6332C31.1889 32.5527 31.717 31.9915 31.717 31.9915L36.8922 36.686L36.1318 35.9307L36.9186 36.6598L32.1923 31.5194C32.1923 31.5194 32.7573 30.9948 33.8452 30.3025C34.933 29.6101 36.6229 28.6816 36.6229 28.6816C36.6229 28.6816 35.5984 28.7446 33.7131 29.8566C32.5461 30.5437 31.8543 30.9686 31.8543 30.9686L31.3156 27.4805V31.1522L27.6401 31.1207Z" fill="#7E3430"/>
<path d="M23.2253 26.3318L24.1601 26.3265V25.183C24.0703 25.1673 23.9805 25.1358 23.896 25.0991L23.2253 26.3318Z" fill="#061F4E"/>
<path d="M24.16 29.1118V27.8896L22.3698 27.9001L21.715 29.0961L22.9137 29.8304L24.16 29.1118Z" fill="#061F4E"/>
<path d="M23.6003 34.9761L22.1692 32.5422L22.053 32.5475L22.3751 34.8921L23.2095 35.3695L22.5811 36.4133L23.7112 44.6747C23.859 44.6799 24.0069 44.6852 24.1601 44.6852V34.6404L23.6003 34.9761Z" fill="#061F4E"/>
<path d="M24.16 32.8359V32.4897L23.9646 32.495L24.16 32.8359Z" fill="#061F4E"/>
<path d="M23.9647 32.495L24.1601 32.4897V30.9214L23.3257 31.4092L23.9647 32.495Z" fill="#061F4E"/>
<path d="M22.3697 27.8999H21.4192L21.773 30.4859L22.9137 29.8302L21.7149 29.0958L22.3697 27.8999Z" fill="#061F4E"/>
<path d="M23.4841 24.8264C23.4577 24.8001 23.4365 24.7687 23.4154 24.7424L21.979 26.1587V26.3475L23.2306 26.3423L23.9012 25.1096C23.7481 25.0362 23.6055 24.947 23.4841 24.8264Z" fill="#061F4E"/>
<path d="M22.0582 32.5474L22.1744 32.5422L22.0212 32.2852L22.0582 32.5474Z" fill="#061F4E"/>
<path d="M23.896 25.099C23.9805 25.1357 24.0703 25.1672 24.16 25.1829V24.6165L23.896 25.099Z" fill="#061F4E"/>
<path d="M23.4102 24.7372C23.4366 24.7634 23.4524 24.7948 23.4788 24.8211C23.6003 24.9417 23.7428 25.0361 23.896 25.0991L24.16 24.6165V23.9976L23.4102 24.7372Z" fill="#061F4E"/>
<path d="M23.2095 35.3694L22.3751 34.8921L22.5864 36.4132L23.2095 35.3694Z" fill="#061F4E"/>
<path d="M23.9647 32.4949L22.1744 32.5421L23.6003 34.9759L24.1601 34.6402V32.8358L23.9647 32.4949Z" fill="#061F4E"/>
<path d="M22.9137 29.8302L24.16 30.5908V29.1116L22.9137 29.8302Z" fill="#061F4E"/>
<path d="M23.3256 31.4092L24.16 30.9214V30.5909L22.9137 29.8303L21.7731 30.486L22.0213 32.2851L22.1744 32.5422L23.9646 32.495L23.3256 31.4092Z" fill="#061F4E"/>
<path d="M23.2252 26.3315L22.3698 27.8999L24.16 27.8894V26.3315H23.2252Z" fill="#061F4E"/>
<path d="M23.2253 26.3317L21.9737 26.3422V26.1533L21.2766 26.8405L21.4192 27.9H22.3698L23.2253 26.3317Z" fill="#061F4E"/>
<path d="M37.8902 23.9976H35.5667H34.8379H29.557H27.7774H25.7548C25.7284 24.2965 25.6069 24.5903 25.3746 24.8211C25.3165 24.8788 25.2478 24.9312 25.1844 24.9784L26.2723 26.0275L26.5469 25.7547L27.5028 26.7881L30.0693 26.4419C30.3756 25.8806 30.7769 25.4295 31.2944 25.4033C31.8753 25.3771 32.2503 25.697 32.5037 26.1114L44.9877 24.4382C44.993 24.2913 44.9983 24.1444 44.9983 23.9976H37.8902Z" fill="#061F4E"/>
<path d="M24.498 23.9976L24.3818 24.2126L25.1793 24.9784C25.2479 24.9312 25.3113 24.884 25.3694 24.8211C25.6017 24.5903 25.7232 24.2965 25.7496 23.9976H24.498Z" fill="#061F4E"/>
<path d="M24.3818 24.2126L24.498 23.9976H24.16L24.3818 24.2126Z" fill="#061F4E"/>
<path d="M27.1067 26.8404L27.4975 26.788L26.5417 25.7546L26.2671 26.0274L27.1067 26.8404Z" fill="#061F4E"/>
<path d="M32.4932 26.1166C32.245 25.697 31.8648 25.3823 31.2839 25.4085C30.7716 25.4295 30.365 25.8858 30.0587 26.4471L32.4932 26.1166Z" fill="#061F4E"/>
<path d="M24.16 12.1116C24.3237 12.3634 24.5561 12.6519 24.9046 13.0138C23.9488 11.2042 25.7601 10.9052 24.4135 6.90299C24.704 7.12854 24.9522 7.32786 25.174 7.52718L24.6089 3.32568C24.461 3.32043 24.3132 3.31519 24.16 3.31519V12.1116Z" fill="#061F4E"/>
<path d="M25.2848 22.875L25.3007 22.8593C24.8465 22.4816 24.4663 22.0305 24.1653 21.5217V22.5865C24.5508 22.5079 24.9627 22.6075 25.2848 22.875Z" fill="#061F4E"/>
<path d="M26.1086 14.3513L25.1792 7.5324C24.9574 7.32783 24.7092 7.12851 24.4188 6.9082C25.7601 10.9104 23.954 11.2146 24.9099 13.019C24.5613 12.6571 24.329 12.3633 24.1653 12.1168V16.2501C24.63 15.4581 25.3007 14.8024 26.1086 14.3513Z" fill="#061F4E"/>
<path d="M24.16 23.8506L24.4822 23.6775L25.2796 22.8749C24.9574 22.6074 24.5455 22.5078 24.16 22.5865V23.2002V23.8506Z" fill="#061F4E"/>
<path d="M24.16 23.9975L24.4822 23.6775L24.16 23.8506V23.9975Z" fill="#061F4E"/>
<path d="M25.3007 22.8592L27.0328 21.123L26.1087 14.3513C25.3007 14.8024 24.63 15.4581 24.16 16.2449V21.5217C24.4663 22.0305 24.8465 22.4816 25.3007 22.8592Z" fill="#061F4E"/>
<path d="M20.3895 23.0847L21.9579 23.1057L21.9632 24.0026H23.0986C23.088 23.8715 23.0933 23.7404 23.1197 23.6092C22.6444 23.1109 22.1586 22.6126 21.6516 22.1038C21.3876 21.8416 21.1288 21.5845 20.8648 21.3328C20.2416 21.7524 19.5657 22.1091 18.858 22.3923L19.8508 22.9431L19.2435 23.9974H20.3895V23.0847Z" fill="#061F4E"/>
<path d="M14.0524 23.3628L15.1772 24.0027H15.737L15.7581 23.132C15.5522 23.153 15.3462 23.1687 15.1403 23.174C13.6986 23.2264 12.315 22.9904 11.037 22.5288L3.34809 23.5884C3.34281 23.7247 3.33752 23.8611 3.33752 23.9975H13.6722L14.0524 23.3628Z" fill="#061F4E"/>
<path d="M16.9358 22.9589L17.5061 23.882L18.2296 22.6179C17.8071 22.7595 17.3741 22.8697 16.9358 22.9589Z" fill="#061F4E"/>
<path d="M17.5061 23.8822L16.9358 22.959C16.5503 23.0377 16.1648 23.0954 15.7634 23.1268L15.7423 23.9976H17.4375L17.5061 23.8822Z" fill="#061F4E"/>
<path d="M23.1039 23.9974H23.4894C23.3679 23.8663 23.2464 23.7404 23.125 23.604C23.0933 23.7351 23.0933 23.8663 23.1039 23.9974Z" fill="#061F4E"/>
<path d="M21.9631 23.1057L20.3894 23.0847V23.9974H21.9631V23.1057Z" fill="#061F4E"/>
<path d="M14.0525 23.3628L13.6722 23.9975H15.1773L14.0525 23.3628Z" fill="#061F4E"/>
<path d="M19.2488 23.9974L19.8561 22.9431L18.8633 22.3923C18.6573 22.4763 18.4461 22.5497 18.2348 22.6231L17.5114 23.8873L17.58 24.0027H19.2488V23.9974Z" fill="#061F4E"/>
<path d="M17.5062 23.8821L17.4375 23.9975H17.5748L17.5062 23.8821Z" fill="#061F4E"/>
<path d="M14.3059 22.083L11.0424 22.5341C12.3203 22.9957 13.7039 23.2265 15.1456 23.1793C15.3568 23.174 15.5575 23.1531 15.7635 23.1373L15.774 22.7649C15.1773 22.8908 14.5805 22.6023 14.3059 22.083Z" fill="#061F4E"/>
<path d="M18.4831 22.1826L18.8581 22.3924C19.5657 22.1092 20.2417 21.7525 20.8648 21.3329C21.1236 21.5846 21.3876 21.8417 21.6517 22.1039C22.1639 22.6127 22.6497 23.111 23.1197 23.6093C23.1514 23.452 23.2148 23.2946 23.3099 23.153L21.2714 21.123L16.788 21.742C16.7457 21.9466 16.6559 22.1406 16.5239 22.3032L16.9306 22.9642C17.3741 22.875 17.8072 22.7648 18.2244 22.6232L18.4831 22.1826Z" fill="#061F4E"/>
<path d="M16.5239 22.3032C16.3549 22.513 16.1173 22.6756 15.8321 22.7543C15.811 22.7596 15.7899 22.7596 15.7687 22.7648L15.7582 23.1372C16.1542 23.1005 16.545 23.0428 16.9305 22.9694L16.5239 22.3032Z" fill="#061F4E"/>
<path d="M16.2281 21.8155L16.5292 22.2981C16.6612 22.1355 16.751 21.9414 16.7932 21.7368L16.2281 21.8155Z" fill="#061F4E"/>
<path d="M14.3059 22.083C14.5805 22.6023 15.1773 22.8908 15.774 22.7596L15.7951 21.8784L14.3059 22.083Z" fill="#061F4E"/>
<path d="M15.795 21.8784L15.7739 22.7596C15.795 22.7543 15.8162 22.7543 15.8373 22.7491C16.1225 22.6757 16.3548 22.5131 16.5291 22.298L16.2281 21.8154L15.795 21.8784Z" fill="#061F4E"/>
<path d="M23.4894 23.9976H23.8855L24.065 23.9032L23.3151 23.1531C23.2201 23.2947 23.1567 23.4468 23.125 23.6094C23.2465 23.7406 23.3679 23.8717 23.4894 23.9976Z" fill="#061F4E"/>
<path d="M24.16 23.9975L24.0649 23.9031L23.8854 23.9975H24.16Z" fill="#061F4E"/>
<path d="M18.2296 22.6232C18.4408 22.555 18.6521 22.4764 18.858 22.3924L18.4831 22.1826L18.2296 22.6232Z" fill="#061F4E"/>
<path d="M20.3894 23.9976H19.2488L18.4408 25.4033L19.1484 26.552L20.3947 25.8806L20.3894 23.9976Z" fill="#F2D579"/>
<path d="M12.8589 25.0938L13.2444 25.7495L15.6578 26.0747L13.2497 24.7004L13.6722 23.9976H3.33752C3.33752 24.1339 3.34281 24.2703 3.34809 24.4014L12.0298 25.5817L12.8589 25.0938Z" fill="#F2D579"/>
<path d="M15.1825 23.9976L15.7317 24.3123L15.7423 23.9976H15.1825Z" fill="#F2D579"/>
<path d="M23.1884 24.3752C23.1409 24.2546 23.1145 24.1287 23.1039 23.9976H21.9685L21.9738 25.0309L23.1884 24.3752Z" fill="#F2D579"/>
<path d="M19.1484 26.552L18.4408 25.4033L17.8757 26.3789L20.3947 26.7199V25.8806L19.1484 26.552Z" fill="#F2D579"/>
<path d="M17.4374 23.9976H15.7423L15.7317 24.3123L16.8829 24.9679L17.4374 23.9976Z" fill="#F2D579"/>
<path d="M23.1884 24.3752L21.9685 25.0309L21.9738 26.1534L23.4102 24.7372C23.3151 24.627 23.2412 24.5064 23.1884 24.3752Z" fill="#F2D579"/>
<path d="M23.8855 23.9976H23.4894H23.1039C23.1144 24.1234 23.1408 24.2546 23.1884 24.3752L23.8855 23.9976Z" fill="#F2D579"/>
<path d="M23.8854 23.9976L23.1884 24.3752C23.2412 24.5064 23.3204 24.627 23.4154 24.7372L24.1653 23.9976H23.8854Z" fill="#F2D579"/>
<path d="M21.9631 23.9976H20.3894L20.3947 25.8806L21.9684 25.0309L21.9631 23.9976Z" fill="#F2D579"/>
<path d="M21.2767 26.8404L21.9738 26.1533L21.9685 25.0308L20.3948 25.8805V26.7198L21.2767 26.8404Z" fill="#F2D579"/>
<path d="M15.7318 24.3123L15.1826 23.9976H13.6722L13.2498 24.7004L15.6578 26.08H15.6842L15.7318 24.3123Z" fill="#F2D579"/>
<path d="M19.2488 23.9976H17.5747L18.4408 25.4033L19.2488 23.9976Z" fill="#F2D579"/>
<path d="M17.5748 23.9976H17.4375L16.883 24.9679L15.7317 24.3123L15.6842 26.08L17.8758 26.3789L18.4408 25.4033L17.5748 23.9976Z" fill="#F2D579"/>
<path d="M12.8589 25.0938L12.0298 25.5868L13.2444 25.7494L12.8589 25.0938Z" fill="#F2D579"/>
<path d="M34.2148 23.1216C34.5528 23.4258 34.7324 23.7091 34.8433 23.9976H35.5667C35.3027 23.751 34.9225 23.4678 34.2148 23.1216Z" fill="#F2D579"/>
<path d="M37.8902 23.9976H44.9825C44.9825 23.8454 44.9719 23.6986 44.9719 23.5517L36.7601 22.4397C36.9925 22.8856 37.2882 23.3996 37.8902 23.9976Z" fill="#F2D579"/>
<path d="M29.5571 23.9976H34.8433C34.7324 23.7091 34.5528 23.4258 34.2149 23.1216C34.9225 23.4678 35.3027 23.751 35.5668 23.9976H37.8904C37.2883 23.3996 36.9926 22.8803 36.7602 22.4397L32.9052 21.9204C32.1236 22.9957 30.9354 23.7615 29.5571 23.9976Z" fill="#F2D579"/>
<path d="M25.7495 23.9976H27.7668C26.8374 23.8403 25.9872 23.4364 25.2954 22.8594L25.2795 22.8751C25.3112 22.9013 25.3376 22.9171 25.3693 22.9485C25.6598 23.237 25.7812 23.6252 25.7495 23.9976Z" fill="#F2D579"/>
<path d="M24.7568 23.5307L24.5033 23.9975H25.7548C25.7865 23.6198 25.6651 23.2317 25.3746 22.9484C25.3482 22.9222 25.3165 22.9012 25.2848 22.875L24.4874 23.6775L24.7568 23.5307Z" fill="#F2D579"/>
<path d="M24.498 23.9976L24.7568 23.5308L24.4822 23.6776L24.16 23.9976H24.498Z" fill="#F2D579"/>
<path d="M25.3007 22.8594C25.9925 23.4364 26.8427 23.8402 27.7721 23.9976H29.557C30.9301 23.7616 32.1183 22.9957 32.9051 21.9152L27.0328 21.1179L25.3007 22.8594Z" fill="#F2D579"/>
<path d="M25.5331 32.4529L24.16 32.4896V32.8358L24.9469 34.1786L24.16 34.6454V44.685C24.3132 44.685 24.4663 44.6745 24.6195 44.6745L26.1245 33.8796C25.6545 33.5806 25.401 33.0141 25.5331 32.4529Z" fill="#F2D579"/>
<path d="M24.16 25.183V26.3264L25.2004 26.3212L25.2215 27.8843L24.16 27.8896V29.1117L25.3694 28.4141L26.1351 29.7779L24.4399 30.7587L25.6123 31.4721C25.5806 31.3515 25.5595 31.2308 25.5647 31.0892C25.5912 30.5542 26.0876 30.1398 26.6896 29.8303L27.0276 27.3965L25.9133 26.3789L26.209 26.0852L26.2407 26.0537L26.2618 26.0327L25.174 24.9836C24.8782 25.1882 24.5086 25.2564 24.16 25.183Z" fill="#F2D579"/>
<path d="M25.8182 31.8918C25.7231 31.7711 25.6545 31.6295 25.6122 31.4722L24.4452 30.7588L24.1653 30.9214V32.4898L25.5383 32.453C25.5436 32.4373 25.5436 32.4216 25.5436 32.4058C25.5964 32.2118 25.6915 32.0387 25.8182 31.8918Z" fill="#F2D579"/>
<path d="M25.533 32.4529C25.401 33.0141 25.6544 33.5806 26.1244 33.8744L26.3251 32.4319L25.533 32.4529Z" fill="#F2D579"/>
<path d="M26.3411 32.327C26.1351 32.2168 25.9556 32.0699 25.813 31.8916C25.6862 32.0385 25.5912 32.2116 25.5384 32.4056C25.5331 32.4214 25.5331 32.4371 25.5331 32.4528L26.3305 32.4319L26.3411 32.327Z" fill="#F2D579"/>
<path d="M24.16 24.6165V25.183C24.5086 25.2512 24.873 25.183 25.1792 24.9785L24.3818 24.2126L24.16 24.6165Z" fill="#F2D579"/>
<path d="M24.16 23.9976V24.6165L24.3818 24.2126L24.16 23.9976Z" fill="#F2D579"/>
<path d="M24.9522 34.1735L24.16 32.8359V34.6403L24.9522 34.1735Z" fill="#F2D579"/>
<path d="M24.4399 30.7587L26.1351 29.7779L25.3694 28.4141L24.16 29.1117V30.5909L24.4399 30.7587Z" fill="#F2D579"/>
<path d="M24.16 30.5908V30.9213L24.4399 30.7587L24.16 30.5908Z" fill="#F2D579"/>
<path d="M24.16 27.8895L25.2215 27.8843L25.2004 26.3264L24.16 26.3317V27.8895Z" fill="#F2D579"/>
<path d="M26.2143 26.085L25.9186 26.3788L27.0328 27.3964L27.1068 26.8404L26.2671 26.0273L26.246 26.0483L26.2143 26.085Z" fill="#F2D579"/>
<path d="M26.4625 31.4826L26.6949 29.8303C26.0928 30.1398 25.5911 30.5542 25.57 31.0892C25.5647 31.2308 25.5859 31.3567 25.6176 31.4721L26.0136 31.7134C26.1404 31.6085 26.2935 31.5298 26.4625 31.4826Z" fill="#F2D579"/>
<path d="M26.0084 31.7135L25.6123 31.4722C25.6546 31.6295 25.7232 31.7712 25.8183 31.8918C25.8763 31.8288 25.9397 31.7659 26.0084 31.7135Z" fill="#F2D579"/>
<path d="M26.3938 31.9494L26.4572 31.4773C26.2935 31.5245 26.1351 31.6032 26.0031 31.7081L26.3938 31.9494Z" fill="#F2D579"/>
<path d="M26.0084 31.7134C25.9397 31.7658 25.8763 31.8288 25.8182 31.8917C25.9555 32.0701 26.1404 32.2117 26.3463 32.3271L26.3991 31.9494L26.0084 31.7134Z" fill="#F2D579"/>
<path d="M22.6972 10.7426C23.1989 12.0539 23.4577 13.4806 23.4049 14.9703C23.3309 17.0789 22.655 19.0249 21.5513 20.6562C21.8048 20.9133 22.0635 21.1755 22.3276 21.4378C22.7923 21.8994 23.2517 22.34 23.7059 22.7701C23.8485 22.6757 24.0069 22.618 24.1653 22.5865V3.31519C24.0122 3.31519 23.8643 3.32568 23.7164 3.32568L22.6972 10.7426Z" fill="#F2D579"/>
<path d="M24.16 22.5864C23.9963 22.6179 23.8431 22.6808 23.7006 22.77C23.8537 22.9169 24.0069 23.0533 24.16 23.1949V22.5864Z" fill="#F2D579"/>
<path d="M21.2766 21.1231L23.315 23.153C23.3626 23.0796 23.4207 23.0114 23.484 22.9484C23.5527 22.8802 23.6266 22.8225 23.7005 22.7753C23.2464 22.3452 22.7869 21.8994 22.3222 21.443C22.0582 21.1808 21.7994 20.9237 21.5459 20.6615C22.6549 19.0302 23.3256 17.0842 23.3995 14.9755C23.4523 13.4859 23.1936 12.0591 22.6919 10.7478L21.2766 21.1231Z" fill="#F2D579"/>
<path d="M23.3151 23.1529L24.0649 23.903L24.16 23.8506V23.1949C24.0069 23.0533 23.8537 22.9169 23.7006 22.77C23.6214 22.8172 23.5474 22.8749 23.4841 22.9431C23.4207 23.0113 23.3626 23.0795 23.3151 23.1529Z" fill="#F2D579"/>
<path d="M24.16 23.8506L24.0649 23.903L24.16 23.9975V23.8506Z" fill="#F2D579"/>
<path d="M24.16 45.4561C36.0736 45.4561 45.764 35.8309 45.764 23.9975C45.764 12.164 36.0736 2.53882 24.16 2.53882C12.2516 2.54406 2.55591 12.1692 2.55591 23.9975C2.55591 35.8309 12.2516 45.4561 24.16 45.4561ZM2.95725 24.3541C2.95725 24.2387 2.94669 24.1181 2.94669 24.0027C2.94669 23.8821 2.95197 23.7667 2.95725 23.646C3.14737 12.3004 12.3519 3.14728 23.7639 2.93746C23.8959 2.93746 24.028 2.92697 24.16 2.92697C24.292 2.92697 24.424 2.93222 24.556 2.93746C28.9233 3.01614 32.9632 4.40615 36.306 6.72459C41.7875 10.5327 45.3785 16.8481 45.3785 23.9975C45.3785 30.3496 42.548 36.0407 38.0698 39.9013C34.4418 43.0328 29.7313 44.963 24.5666 45.0574C24.4293 45.0574 24.2973 45.0679 24.1653 45.0679C24.0332 45.0679 23.9012 45.0627 23.7692 45.0574C12.3519 44.8529 3.14737 35.6945 2.95725 24.3541Z" fill="#F2D579"/>
<path d="M23.7639 45.0576C12.352 44.853 3.14739 35.6946 2.95728 24.3542C3.14739 35.6946 12.352 44.853 23.7639 45.0576Z" fill="#F2D579"/>
<path d="M3.34806 24.4067L2.95728 24.3542C3.14739 35.6946 12.352 44.853 23.7639 45.0576L23.7111 44.6694C12.5738 44.4334 3.56458 35.4743 3.34806 24.4067Z" fill="#F2D579"/>
<path d="M45.3628 23.6041C45.3628 23.7352 45.3733 23.8663 45.3733 23.9975C45.3733 24.1286 45.3681 24.2597 45.3628 24.3856C45.2466 30.5804 42.4477 36.1142 38.0646 39.9013C42.5375 36.0408 45.3733 30.3496 45.3733 23.9975C45.3733 16.8481 41.7823 10.5327 36.3008 6.72461C41.6873 10.4645 45.236 16.6173 45.3628 23.6041Z" fill="#F2D579"/>
<path d="M36.306 6.72463C32.9632 4.40619 28.9233 3.01618 24.556 2.9375C28.9233 3.01618 32.9632 4.40619 36.306 6.72463Z" fill="#F2D579"/>
<path d="M24.6088 3.32565C35.7356 3.56169 44.7343 12.4997 44.9719 23.5516L45.3627 23.6041C45.2307 16.6173 41.6819 10.4645 36.3007 6.72463C32.9632 4.40619 28.9233 3.01618 24.556 2.9375L24.6088 3.32565Z" fill="#F2D579"/>
<path d="M23.7639 2.9375C12.352 3.14731 3.14739 12.3004 2.95728 23.6408C3.14739 12.3004 12.352 3.14731 23.7639 2.9375Z" fill="#F2D579"/>
<path d="M23.7111 3.32565L23.7639 2.9375C12.352 3.14731 3.14739 12.3004 2.95728 23.6408L3.34806 23.5884C3.56986 12.5207 12.5738 3.56169 23.7111 3.32565Z" fill="#F2D579"/>
<path d="M24.5667 45.0627C29.7313 44.9682 34.4366 43.038 38.0698 39.9065C34.4366 43.038 29.7313 44.963 24.5667 45.0627Z" fill="#F2D579"/>
<path d="M45.3627 24.3909L44.972 24.4433C44.7343 35.49 35.741 44.4333 24.6195 44.6693L24.5667 45.0575C29.7313 44.963 34.4366 43.0328 38.0698 39.9013C42.4477 36.1194 45.2518 30.5856 45.3627 24.3909Z" fill="#F2D579"/>
<path d="M23.7639 45.0574C23.8959 45.0626 24.028 45.0679 24.16 45.0679C24.028 45.0679 23.9012 45.0626 23.7639 45.0574Z" fill="#F2D579"/>
<path d="M24.1601 44.6851C24.0122 44.6851 23.859 44.6746 23.7112 44.6746L23.764 45.0575C23.896 45.0575 24.028 45.068 24.1601 45.068V44.6851Z" fill="#F2D579"/>
<path d="M44.9719 24.4433L45.3627 24.3908C45.3627 24.2597 45.3733 24.1286 45.3733 24.0027H44.9825C44.9878 24.1496 44.9772 24.2964 44.9719 24.4433Z" fill="#F2D579"/>
<path d="M24.5561 2.93749C24.4241 2.93749 24.2921 2.927 24.16 2.927C24.2921 2.927 24.4241 2.93749 24.5561 2.93749Z" fill="#F2D579"/>
<path d="M24.6089 3.32565L24.5561 2.93749C24.4241 2.93749 24.2921 2.927 24.16 2.927V3.31516C24.3132 3.31516 24.461 3.32565 24.6089 3.32565Z" fill="#F2D579"/>
<path d="M2.95734 23.6409C2.95734 23.7615 2.94678 23.8769 2.94678 23.9976C2.94678 23.8822 2.95734 23.7615 2.95734 23.6409Z" fill="#F2D579"/>
<path d="M3.34812 23.5884L2.95734 23.6408C2.95734 23.7615 2.94678 23.8769 2.94678 23.9975H3.33756C3.33756 23.8611 3.34812 23.7248 3.34812 23.5884Z" fill="#F2D579"/>
<path d="M2.94678 23.9976C2.94678 24.1182 2.95206 24.2336 2.95734 24.349C2.95734 24.2336 2.94678 24.1182 2.94678 23.9976Z" fill="#F2D579"/>
<path d="M3.33756 23.9976H2.94678C2.94678 24.1182 2.95206 24.2336 2.95734 24.349L3.34812 24.4015C3.34812 24.2703 3.33756 24.1339 3.33756 23.9976Z" fill="#F2D579"/>
<path d="M45.3733 23.9976C45.3733 23.8665 45.368 23.7353 45.3627 23.6042L44.9719 23.5518C44.9772 23.6986 44.9825 23.8507 44.9825 23.9976H45.3733Z" fill="#F2D579"/>
<path d="M24.16 45.0679C24.2973 45.0679 24.4294 45.0626 24.5614 45.0574C24.4294 45.0626 24.2973 45.0679 24.16 45.0679Z" fill="#F2D579"/>
<path d="M24.1601 45.0681C24.2974 45.0681 24.4294 45.0628 24.5614 45.0576L24.6142 44.6694C24.4611 44.6747 24.3079 44.6799 24.1548 44.6799V45.0681H24.1601Z" fill="#F2D579"/>
<path d="M24.16 2.927C24.028 2.927 23.8959 2.93225 23.7639 2.93749C23.8959 2.93749 24.028 2.927 24.16 2.927Z" fill="#F2D579"/>
<path d="M24.1601 3.31516V2.927C24.028 2.927 23.896 2.93225 23.764 2.93749L23.7112 3.32565C23.8643 3.32565 24.0122 3.31516 24.1601 3.31516Z" fill="#F2D579"/>
<path d="M16.7351 31.4143L20.2205 30.4859L17.6698 27.9524L16.7351 31.4143Z" fill="#3B4D80"/>
<path d="M122.162 23.8087L123.921 16.9845H123.969L125.775 23.8087H122.162ZM130.96 30.0768V29.4054C130.96 28.734 130.068 29.2638 129.73 28.0889L125.416 13.3442C125.368 13.1292 125.294 12.9875 125.056 12.9875C124.914 12.9875 124.645 13.061 123.44 13.4439C123.129 13.5383 123.007 13.6327 123.007 13.8268C123.007 14.0681 123.198 14.6398 123.298 15.1224L119.564 28.3144C119.3 29.2743 118.334 28.7445 118.334 29.4159V30.0873H122.094V29.4159C122.094 28.7445 121.08 29.2743 121.08 28.3878C121.08 27.5958 121.465 26.4471 121.83 25.0623H126.165C126.429 26.3054 127.132 28.0784 127.132 28.5819C127.132 29.2743 126.049 28.7498 126.049 29.4212V30.0926H130.96V30.0768Z" fill="#F2D579"/>
<path d="M122.997 23.1635H124.935L123.953 19.4551L122.997 23.1635ZM121.339 24.4067V24.4014V24.4067ZM119.432 29.4369H121.001C120.716 29.2743 120.43 28.9701 120.43 28.3826C120.43 27.6955 120.668 26.8353 120.943 25.8386C121.006 25.6026 121.075 25.3561 121.143 25.099L120.182 28.4823C120.04 29.0173 119.728 29.2848 119.432 29.4369ZM127.306 29.4369H129.994C129.677 29.2743 129.302 28.9649 129.102 28.2725L124.835 13.6852C124.544 13.7691 124.048 13.9265 123.689 14.0367C123.715 14.1416 123.747 14.2622 123.773 14.3566C123.826 14.5559 123.884 14.7762 123.926 14.9913L123.958 15.1434L123.62 16.3394H124.465L126.604 24.4067H126.688L126.799 24.9155C126.915 25.4715 127.137 26.1691 127.332 26.7828C127.618 27.6902 127.781 28.22 127.781 28.5662C127.776 28.9649 127.618 29.2533 127.306 29.4369ZM131.61 30.722H125.394V29.4055C125.394 28.8285 125.748 28.477 126.445 28.3669C126.377 28.0679 126.218 27.5644 126.091 27.171C125.944 26.6989 125.78 26.1848 125.653 25.697H122.326C122.284 25.8596 122.236 26.0222 122.194 26.1796C121.951 27.066 121.74 27.8371 121.729 28.3512C121.751 28.3564 121.772 28.3616 121.793 28.3669C122.025 28.4246 122.743 28.5977 122.743 29.416V30.7325H117.684V29.416C117.684 28.6029 118.371 28.4298 118.63 28.3616C118.888 28.2987 118.899 28.2882 118.936 28.1413L122.627 15.1015C122.596 14.9651 122.559 14.8235 122.522 14.6871C122.421 14.2937 122.358 14.0471 122.358 13.8321C122.358 13.1082 123.029 12.8984 123.25 12.8302C124.56 12.4158 124.814 12.3477 125.056 12.3477C125.352 12.3477 125.875 12.4578 126.044 13.1869L130.353 27.9158C130.448 28.2515 130.543 28.283 130.776 28.3669C131.024 28.4561 131.61 28.6606 131.61 29.4107V30.722Z" fill="#F2D579"/>
<path d="M80.697 30.0769H75.7805V29.4055C75.7805 28.7341 76.8631 29.2639 76.8631 28.5663C76.8631 28.0627 76.166 26.2951 75.8967 25.0467L73.7052 16.9794H73.6576L71.5611 25.0467C71.202 26.4367 70.8112 27.5854 70.8112 28.3722C70.8112 29.2587 71.8252 28.7289 71.8252 29.4003V30.0717H68.0652V29.4003C68.0652 28.7289 69.0316 29.2587 69.2956 28.2988L73.0292 15.1068C72.9341 14.6294 72.7388 14.0525 72.7388 13.8112C72.7388 13.6223 72.8602 13.5227 73.1718 13.4283C74.3758 13.0454 74.6399 12.9719 74.7877 12.9719C75.0307 12.9719 75.0993 13.1135 75.1468 13.3286L79.4613 28.0732C79.7993 29.2482 80.6918 28.7184 80.6918 29.3898V30.0769H80.697Z" fill="#F2D579"/>
<path d="M69.1689 29.4369H70.7373C70.4521 29.2743 70.167 28.9701 70.167 28.3826C70.167 27.6955 70.4046 26.8353 70.6792 25.8386C70.7426 25.5974 70.8165 25.3456 70.8852 25.0886L69.9241 28.4875C69.7709 29.0173 69.4646 29.2848 69.1689 29.4369ZM77.0427 29.4369H79.7306C79.4138 29.2743 79.0388 28.9649 78.8435 28.2725L74.5765 13.6852C74.2861 13.7691 73.7897 13.9265 73.4358 14.0367C73.4622 14.1416 73.4939 14.2622 73.5151 14.3566C73.5679 14.5559 73.626 14.7815 73.6682 14.9913L73.6999 15.1434L73.3619 16.3394H74.2069L76.5357 24.9155C76.6519 25.4715 76.8737 26.1691 77.0691 26.7828C77.3543 27.6902 77.518 28.22 77.518 28.5662C77.5127 28.9649 77.3542 29.2533 77.0427 29.4369ZM81.3413 30.722H75.1257V29.4055C75.1257 28.8285 75.4795 28.477 76.1766 28.3669C76.108 28.0679 75.9495 27.5644 75.8228 27.171C75.6221 26.5363 75.395 25.8177 75.263 25.204L73.6893 19.4184L72.1843 25.2144C72.0998 25.5501 72.01 25.8701 71.9255 26.1796C71.6826 27.066 71.4661 27.8371 71.4608 28.3512C71.4819 28.3564 71.503 28.3616 71.5242 28.3669C71.7565 28.4246 72.4747 28.5977 72.4747 29.416V30.7325H67.4156V29.416C67.4156 28.6029 68.1022 28.4298 68.3609 28.3616C68.6197 28.2987 68.625 28.2882 68.6672 28.1413L72.3585 15.1015C72.3269 14.9651 72.2899 14.8235 72.2529 14.6871C72.1526 14.2989 72.0892 14.0471 72.0892 13.8321C72.0892 13.1082 72.7599 12.8984 72.9817 12.8302C74.3019 12.4106 74.5395 12.3477 74.7877 12.3477C75.0835 12.3477 75.6063 12.4578 75.7753 13.1869L80.0845 27.9158C80.1795 28.2515 80.2746 28.283 80.5069 28.3669C80.7551 28.4561 81.3413 28.6606 81.3413 29.4107V30.722Z" fill="#F2D579"/>
<path d="M80.5703 13.3232V13.9474C80.5703 14.6188 81.6318 14.1415 81.6318 15.2378V28.1623C81.6318 29.2638 80.5703 28.7865 80.5703 29.4579V30.0821H84.0874V29.4579C84.0874 28.7865 83.0259 29.269 83.0259 28.1623V15.5263H83.0734L86.8334 30.0821H88.5233L92.0668 15.3374H92.1407V28.1675C92.1407 29.269 91.0792 28.7917 91.0792 29.4631V30.0873H95.9007V29.4631C95.9007 28.7917 94.8392 29.2743 94.8392 28.1675V15.2378C94.8392 14.1363 95.9007 14.6136 95.9007 13.9474V13.3232H91.3697L88.3596 25.5553H88.3121L85.1541 13.3232H80.5703Z" fill="#F2D579"/>
<path d="M87.3351 29.4369H88.0058L88.7821 26.2006H87.7946L84.6366 13.9685H81.6107C81.9275 14.1573 82.2655 14.514 82.2655 15.2378V28.1623C82.2655 28.8862 81.9275 29.2429 81.6107 29.4317H83.0259C82.7091 29.2429 82.3711 28.8862 82.3711 28.1623V14.8811H83.5699L87.3351 29.4369ZM92.1249 29.4369H94.8393C94.5224 29.2481 94.1844 28.8914 94.1844 28.1676V15.2378C94.1844 14.514 94.5224 14.1573 94.8393 13.9685H91.8714L91.6971 14.6871H92.785V28.1623C92.785 28.8914 92.447 29.2481 92.1249 29.4369ZM96.545 30.722H90.4297V29.4579C90.4297 28.7131 91.0529 28.4875 91.2905 28.4036C91.3539 28.3826 91.4489 28.3459 91.4753 28.3249C91.4753 28.3249 91.4912 28.2777 91.4912 28.1623V20.5094L89.0356 30.7273H86.3318L83.6755 20.4464V28.1676C83.6755 28.2934 83.6966 28.3354 83.6966 28.3354C83.7125 28.3459 83.8128 28.3826 83.8762 28.4036C84.1138 28.4875 84.7369 28.7131 84.7369 29.4579V30.722H79.9208V29.4579C79.9208 28.7131 80.5439 28.4875 80.7816 28.4036C80.8449 28.3826 80.94 28.3459 80.9664 28.3249C80.9664 28.3249 80.9822 28.2777 80.9822 28.1623V15.2378C80.9822 15.1119 80.9611 15.07 80.9611 15.07C80.9453 15.0595 80.8449 15.0228 80.7816 15.0018C80.5439 14.9179 79.9208 14.6923 79.9208 13.9475V12.6833H85.6505L88.3121 23.0009L90.8522 12.6833H96.5397V13.9475C96.5397 14.6923 95.9165 14.9179 95.6789 15.0018C95.6155 15.0228 95.5205 15.0595 95.4941 15.0805C95.4941 15.0805 95.4782 15.1277 95.4782 15.2431V28.1676C95.4782 28.2934 95.4994 28.3354 95.4994 28.3354C95.5152 28.3459 95.6155 28.3826 95.6789 28.4036C95.9165 28.4875 96.5397 28.7131 96.5397 29.4579V30.722H96.545Z" fill="#F2D579"/>
<path d="M99.423 23.8087L101.182 16.9845H101.229L103.035 23.8087H99.423ZM108.216 30.0768V29.4054C108.216 28.734 107.323 29.2638 106.985 28.0889L102.671 13.3442C102.623 13.1292 102.549 12.9875 102.312 12.9875C102.169 12.9875 101.9 13.061 100.696 13.4439C100.384 13.5383 100.263 13.6327 100.263 13.8268C100.263 14.0681 100.453 14.6398 100.553 15.1224L96.8196 28.3144C96.5555 29.2743 95.5891 28.7445 95.5891 29.4159V30.0873H99.3491V29.4159C99.3491 28.7445 98.3352 29.2743 98.3352 28.3878C98.3352 27.5958 98.7207 26.4471 99.0851 25.0623H103.421C103.685 26.3054 104.387 28.0784 104.387 28.5819C104.387 29.2743 103.304 28.7498 103.304 29.4212V30.0926H108.216V30.0768Z" fill="#F2D579"/>
<path d="M100.257 23.1635H102.195L101.213 19.4551L100.257 23.1635ZM96.6928 29.4369H98.2612C97.9761 29.2743 97.6909 28.9701 97.6909 28.3826C97.6909 27.6955 97.9286 26.8353 98.2032 25.8386C98.2665 25.6026 98.3352 25.3561 98.4038 25.099L97.4427 28.4875C97.2948 29.0173 96.9833 29.2848 96.6928 29.4369ZM104.567 29.4369H107.255C106.938 29.2743 106.563 28.9649 106.367 28.2725L102.1 13.6852C101.81 13.7691 101.314 13.9265 100.96 14.0367C100.986 14.1416 101.018 14.2622 101.039 14.3566C101.092 14.5559 101.15 14.7815 101.192 14.9913L101.224 15.1434L100.886 16.3394H101.731L103.87 24.4067H103.949L104.06 24.9155C104.176 25.4715 104.398 26.1691 104.593 26.7828C104.878 27.6902 105.042 28.22 105.042 28.5662C105.037 28.9649 104.878 29.2533 104.567 29.4369ZM108.865 30.722H102.65V29.4055C102.65 28.8285 103.003 28.477 103.701 28.3669C103.632 28.0679 103.473 27.5644 103.347 27.171C103.199 26.6989 103.035 26.1848 102.908 25.697H99.5815C99.5392 25.8596 99.4917 26.0222 99.4494 26.1796C99.2065 27.066 98.99 27.8371 98.9847 28.3512C99.0058 28.3564 99.027 28.3616 99.0481 28.3669C99.2805 28.4246 99.9987 28.5977 99.9987 29.416V30.7325H94.9396V29.416C94.9396 28.6029 95.6261 28.4298 95.8849 28.3616C96.1436 28.2987 96.1542 28.2882 96.1911 28.1413L99.8825 15.1015C99.8508 14.9651 99.8138 14.8235 99.7769 14.6871C99.6765 14.2989 99.6132 14.0471 99.6132 13.8321C99.6132 13.1082 100.284 12.8984 100.506 12.8302C101.826 12.4106 102.063 12.3477 102.312 12.3477C102.607 12.3477 103.13 12.4578 103.299 13.1869L107.608 27.9158C107.703 28.2515 107.799 28.283 108.031 28.3669C108.279 28.4561 108.865 28.6606 108.865 29.4107V30.722Z" fill="#F2D579"/>
<path d="M140.482 25.8438C139.832 28.1413 138.602 29.1694 136.891 29.1694C134.578 29.1694 132.819 27.4699 132.819 21.8469C132.819 15.5263 134.99 13.9947 136.532 13.9947C140.339 13.9947 138.655 19.1193 140.603 19.1193H141.232V13.7062H140.244C140.123 13.9212 139.98 14.0419 139.764 14.0419C139.378 14.0419 138.438 12.9875 136.294 12.9875C132.196 12.9875 129.788 16.8638 129.788 21.7C129.788 27.0136 132.149 30.486 136.537 30.4125C139.114 30.4125 140.635 29.3582 141.501 26.3684L140.482 25.8438Z" fill="#F2D579"/>
<path d="M139.051 14.4457C139.658 15.2167 139.864 16.2501 140.028 17.0578C140.197 17.8866 140.329 18.4426 140.577 18.4688V14.3512H140.561C140.292 14.6188 139.991 14.6869 139.758 14.6869C139.51 14.6869 139.299 14.582 139.051 14.4457ZM134.868 13.832C132.487 14.5243 130.427 17.0369 130.427 21.7C130.427 24.6583 131.172 26.9505 132.582 28.3248C133.527 29.248 134.747 29.7306 136.215 29.7673C133.532 29.4001 132.17 26.7355 132.17 21.8416C132.17 18.8937 132.635 16.6592 133.543 15.2062C133.96 14.5453 134.419 14.11 134.868 13.832ZM136.384 31.0576C134.493 31.0576 132.909 30.4492 131.673 29.2427C130.01 27.6167 129.133 25.0098 129.133 21.7C129.133 16.1924 132.075 12.3423 136.289 12.3423C137.968 12.3423 139.014 12.935 139.574 13.255C139.616 13.2812 139.663 13.3074 139.711 13.3284L139.864 13.0556H141.881V19.7539H140.609C139.262 19.7539 138.987 18.3954 138.766 17.3044C138.428 15.6416 138.111 14.6292 136.537 14.6292C135.058 14.6292 133.474 16.5228 133.474 21.8363C133.474 28.5189 136.051 28.5189 136.896 28.5189C137.82 28.5189 139.135 28.2251 139.864 25.6602L140.081 24.8944L142.272 26.0326L142.124 26.5361C141.205 29.6991 139.537 31.0471 136.537 31.0471C136.479 31.0576 136.431 31.0576 136.384 31.0576Z" fill="#F2D579"/>
<path d="M77.2011 27.2811C77.2011 27.2811 72.7916 24.7371 66.6235 24.0447V22.7124C72.9289 23.5359 77.2539 26.2478 77.2539 26.2478L77.2011 27.2811Z" fill="#F2D579"/>
<path d="M67.2731 23.4782C67.5371 23.5149 67.7959 23.5516 68.0494 23.5936C67.7959 23.5464 67.5371 23.4992 67.2731 23.4572V23.4782ZM77.7926 28.3668L76.8737 27.8371C76.8315 27.8108 72.4959 25.3508 66.5496 24.6846L65.974 24.6217V21.978L66.708 22.0724C73.0821 22.9065 77.4177 25.5921 77.5972 25.7022L77.9194 25.9015L77.7926 28.3668Z" fill="#F2D579"/>
<path d="M63.059 23.8822C62.4359 23.8927 61.8021 23.9294 61.1632 23.9923C54.9212 24.5903 52.6715 29.374 53.8861 33.2766C55.2592 37.6879 62.1348 38.0655 63.7825 38.0446L63.7297 38.2596C63.7297 38.2596 51.478 40.0378 50.4483 31.4512C49.8674 26.6098 54.7997 22.8489 61.7969 22.5132C62.2246 22.4922 62.6471 22.4817 63.0643 22.4817V23.8822H63.059Z" fill="#F2D579"/>
<path d="M62.4094 23.1319C62.214 23.1371 62.0187 23.1424 61.8233 23.1529C57.7675 23.347 54.3667 24.7212 52.4972 26.919C51.383 28.2251 50.8971 29.7672 51.0872 31.3723C51.309 33.2239 52.1223 34.6978 53.5112 35.7522C54.4881 36.497 55.6658 36.9743 56.8645 37.2785C55.2486 36.5075 53.8386 35.3115 53.263 33.4652C52.5817 31.2726 52.9091 28.9385 54.166 27.0659C55.576 24.9625 58.0369 23.6459 61.0945 23.3522C61.5275 23.3102 61.9658 23.2788 62.4042 23.2578V23.1319H62.4094ZM61.1473 39.0567C58.7498 39.0567 55.2327 38.679 52.7243 36.7697C51.0503 35.5004 50.068 33.7327 49.804 31.5192C49.5663 29.5522 50.1578 27.6691 51.5097 26.085C53.6168 23.6145 57.3504 22.0723 61.7652 21.8625C62.1929 21.8415 62.6312 21.8311 63.0643 21.8311H63.7138V24.5062L63.0801 24.5219C62.4622 24.5324 61.8391 24.5691 61.2318 24.6268C57.8151 24.9573 56.0988 26.5204 55.2591 27.774C54.2188 29.3266 53.9495 31.2622 54.5145 33.0823C55.032 34.7451 56.516 35.962 58.9293 36.7016C61.2318 37.4044 63.529 37.3992 63.7825 37.3939L64.6274 37.3835L64.263 38.8312L63.83 38.8941C63.7085 38.9098 62.6471 39.0567 61.1473 39.0567Z" fill="#F2D579"/>
<path d="M60.577 12.678C59.9749 12.678 59.4944 12.4892 59.0561 12.3423L59.0297 12.3685V17.1785H59.6792C60.8833 17.1785 60.1386 13.8267 62.4992 13.8267H63.4867V32.4581C63.4867 33.5596 62.4253 33.0823 62.4253 33.7537V34.3779H67.2467V33.7537C67.2467 33.0823 66.1853 33.5649 66.1853 32.4581V13.8267H67.1728C69.5333 13.8267 68.7887 17.1785 69.9928 17.1785H70.6423V12.3685L70.6159 12.3423C70.1829 12.4839 69.7023 12.678 69.095 12.678H60.577Z" fill="#F2D579"/>
<path d="M68.0494 13.3232C69.2059 13.7324 69.5492 14.9598 69.771 15.7466C69.8344 15.9721 69.9241 16.2869 70.0034 16.4547V13.2131C69.734 13.276 69.4383 13.3232 69.1109 13.3232H68.0494ZM59.6792 13.2079V16.4495C59.7637 16.2764 59.8482 15.9616 59.9116 15.7413C60.1334 14.9545 60.4767 13.7271 61.6332 13.318H60.577C60.2443 13.3232 59.9486 13.276 59.6792 13.2079ZM63.4815 33.7276H66.1958C65.879 33.5387 65.541 33.1821 65.541 32.4582V13.3232H64.1416V32.4582C64.1416 33.1821 63.7983 33.5387 63.4815 33.7276ZM67.9016 35.0179H61.7863V33.7538C61.7863 33.009 62.4095 32.7834 62.6471 32.6995C62.7105 32.6785 62.8055 32.6418 62.8319 32.6208C62.8319 32.6208 62.8478 32.5736 62.8478 32.4582V14.472H62.5098C61.7124 14.472 61.48 14.9913 61.1737 16.0928C60.9678 16.8219 60.6879 17.8237 59.6951 17.8237H58.396V12.1011L58.8924 11.608L59.4363 11.7864C59.7954 11.907 60.1651 12.0329 60.5876 12.0329H69.1162C69.5386 12.0329 69.8925 11.9123 70.2674 11.7864L70.8113 11.6028L71.3077 12.1011V17.8237H70.0086C69.0158 17.8237 68.7307 16.8219 68.53 16.0928C68.2237 14.9913 67.9913 14.472 67.1887 14.472H66.8507V32.4582C66.8507 32.5841 66.8718 32.6261 66.8718 32.6261C66.8876 32.6365 66.9827 32.6733 67.0514 32.6942C67.289 32.7782 67.9121 33.0037 67.9121 33.7485V35.0179H67.9016Z" fill="#F2D579"/>
<path d="M115.973 23.0166C115.973 23.0166 120.161 33.7381 126.435 35.0284C134.536 36.6912 138.523 31.9599 138.523 31.9599L138.739 32.1225C138.739 32.1225 135.777 37.6091 125.859 36.8276C117.426 36.1614 112.895 22.875 112.895 22.875C112.483 22.0357 112.145 21.8469 111.495 21.8469V28.1675C111.495 29.269 112.557 28.7917 112.557 29.4579V30.0821H107.73V29.4579C107.73 28.7865 108.791 29.269 108.791 28.1675V15.2378C108.791 14.1363 107.73 14.6136 107.73 13.9474V13.3232H113.275C116.554 13.3232 118.529 14.8549 118.529 17.5352C118.529 19.5442 117.325 21.4115 114.357 21.5112V21.5584C115.102 21.7472 115.535 22.1564 115.973 23.0166ZM111.49 14.3303V20.8398H112.356C114.864 20.8398 115.683 19.6911 115.683 17.5824C115.683 15.4738 114.864 14.3251 112.356 14.3251H111.49V14.3303Z" fill="#F2D579"/>
<path d="M112.139 20.1947H112.356C114.331 20.1947 115.033 19.5128 115.033 17.5825C115.033 15.6522 114.331 14.9703 112.356 14.9703H112.139V20.1947ZM114.405 14.0366C115.699 14.5769 116.332 15.7519 116.332 17.5877C116.332 19.1141 115.894 20.1842 114.996 20.8136C117.584 20.4412 117.88 18.4375 117.88 17.5405C117.88 16.3393 117.394 14.4196 114.405 14.0366ZM108.781 29.4369H111.5C111.184 29.2481 110.846 28.8914 110.846 28.1676V13.9685H108.786C109.103 14.1573 109.441 14.514 109.441 15.2378V28.1623C109.436 28.8914 109.098 29.2481 108.781 29.4369ZM112.594 21.4798C112.932 21.7001 113.206 22.0568 113.47 22.5918L113.502 22.6652C113.544 22.7911 117.996 35.5582 125.907 36.1824C127.919 36.3398 129.624 36.2401 131.071 35.9778C129.672 36.0932 128.082 36.0198 126.308 35.6579C119.865 34.3361 115.683 24.0395 115.382 23.2789C114.991 22.5078 114.674 22.3033 114.199 22.1826L113.713 22.0568V21.3486C113.37 21.4221 113 21.4693 112.594 21.4798ZM127.76 37.5462C127.137 37.5462 126.488 37.52 125.801 37.4675C122.141 37.179 118.635 34.5773 115.656 29.9457C113.555 26.6779 112.425 23.5307 112.282 23.1216C112.229 23.0114 112.182 22.9222 112.134 22.8488V28.1676C112.134 28.2934 112.155 28.3354 112.155 28.3354C112.171 28.3459 112.266 28.3826 112.335 28.4036C112.572 28.4875 113.196 28.7131 113.196 29.4579V30.722H107.08V29.4579C107.08 28.7131 107.703 28.4875 107.941 28.4036C108.004 28.3826 108.1 28.3459 108.126 28.3249C108.126 28.3249 108.142 28.2777 108.142 28.1623V15.2378C108.142 15.1119 108.121 15.07 108.121 15.07C108.105 15.0595 108.004 15.0228 107.941 15.0018C107.709 14.9179 107.08 14.6923 107.08 13.9475V12.6833H113.27C116.966 12.6833 119.174 14.4982 119.174 17.5405C119.174 19.3187 118.318 21.228 116.031 21.9046C116.216 22.1354 116.385 22.4082 116.549 22.7334L116.575 22.7859C116.618 22.8908 120.71 33.1978 126.561 34.399C134.198 35.9674 137.984 31.5928 138.021 31.5455L138.417 31.0787L139.568 31.9389L139.304 32.4268C139.188 32.6471 136.437 37.5462 127.76 37.5462Z" fill="#F2D579"/>
<path d="M115.973 23.0166C115.973 23.0166 120.161 33.7381 126.435 35.0284C134.536 36.6912 138.523 31.9599 138.523 31.9599L138.739 32.1225C138.739 32.1225 135.777 37.6091 125.859 36.8276C117.426 36.1614 112.895 22.875 112.895 22.875C112.483 22.0357 112.145 21.8469 111.495 21.8469V28.1675C111.495 29.269 112.557 28.7917 112.557 29.4579V30.0821H107.73V29.4579C107.73 28.7865 108.791 29.269 108.791 28.1675V15.2378C108.791 14.1363 107.73 14.6136 107.73 13.9474V13.3232H113.275C116.554 13.3232 118.529 14.8549 118.529 17.5352C118.529 19.5442 117.325 21.4115 114.357 21.5112V21.5584C115.102 21.7472 115.535 22.1564 115.973 23.0166ZM111.49 14.3303V20.8398H112.356C114.864 20.8398 115.683 19.6911 115.683 17.5824C115.683 15.4738 114.864 14.3251 112.356 14.3251H111.49V14.3303Z" fill="#061F4E"/>
<path d="M145.969 30.6801C145.969 31.7816 147.03 31.3043 147.03 31.9757V32.5998H142.198V31.9757C142.198 31.3043 143.26 31.7816 143.26 30.6801V15.1014C143.26 13.9999 142.198 14.4772 142.198 13.8058V13.1816H147.03V13.8058C147.03 14.4772 145.969 13.9999 145.969 15.1014V30.6801Z" fill="#F2D579"/>
<path d="M143.249 31.9546H145.979C145.662 31.7657 145.319 31.4091 145.319 30.68V15.1013C145.319 14.3722 145.662 14.0156 145.979 13.8267H143.249C143.566 14.0156 143.909 14.3722 143.909 15.1013V30.68C143.915 31.4091 143.571 31.7657 143.249 31.9546ZM147.68 33.2449H141.554V31.9756C141.554 31.2307 142.177 31.0052 142.415 30.9213C142.478 30.9003 142.573 30.8636 142.6 30.8426C142.6 30.8426 142.615 30.7954 142.615 30.68V15.1013C142.615 14.9755 142.594 14.9335 142.594 14.9335C142.578 14.923 142.478 14.8863 142.415 14.8653C142.177 14.7814 141.554 14.5558 141.554 13.811V12.5364H147.68V13.8057C147.68 14.5506 147.051 14.7761 146.819 14.8601C146.756 14.881 146.661 14.9178 146.634 14.9387C146.634 14.9387 146.618 14.9859 146.618 15.1013V30.68C146.618 30.8059 146.639 30.8478 146.639 30.8478C146.655 30.8583 146.756 30.895 146.819 30.916C147.057 30.9999 147.68 31.2255 147.68 31.9703V33.2449Z" fill="#F2D579"/>
<path d="M148.451 18.8572L153.953 30.5962C154.576 31.8866 155.691 31.2414 155.691 31.918V32.5894H149.972V31.918C149.972 31.2466 151.081 31.6295 151.081 30.9109C151.081 30.6487 147.247 22.4607 146.592 21.0812L148.451 18.8572Z" fill="#F2D579"/>
<path d="M151.012 31.9442H154.402C154.049 31.7763 153.658 31.4721 153.367 30.8794L148.292 20.053L147.352 21.1755C148.192 22.9484 151.73 30.4388 151.73 30.9108C151.725 31.5245 151.334 31.8078 151.012 31.9442ZM156.335 33.2345H149.317V31.9179C149.317 31.0997 150.051 30.8951 150.331 30.8164C150.336 30.8164 150.347 30.8112 150.352 30.8112C149.76 29.3845 146.771 22.9747 146 21.3538L145.826 20.9814L148.609 17.6611L154.545 30.3234C154.756 30.764 154.999 30.8164 155.337 30.8899C155.612 30.9476 156.346 31.1049 156.346 31.9179V33.2345H156.335Z" fill="#F2D579"/>
<path d="M145.092 22.9012C148.007 17.1628 153.642 13.2603 156.129 12.9088C159.382 12.4525 159.556 15.4056 159.24 16.5806C159.24 16.5806 159.081 16.6592 158.88 16.5806C157.396 11.1044 146.909 19.5442 145.435 23.9975L145.092 22.9012Z" fill="#F2D579"/>
<path d="M156.773 13.5069C156.599 13.5069 156.414 13.5227 156.219 13.5489C155.004 13.722 152.686 14.9651 150.373 17.0738C152.575 15.3481 154.978 14.1049 156.736 14.1521C157.486 14.1731 158.115 14.4091 158.595 14.8445C158.516 14.5403 158.384 14.257 158.183 14.0367C157.872 13.6853 157.397 13.5069 156.773 13.5069ZM145.414 26.1115L144.395 22.8436L144.511 22.6128C147.463 16.7958 153.214 12.6729 156.039 12.2743C157.734 12.0383 158.669 12.6415 159.16 13.187C160.174 14.32 160.069 16.0142 159.868 16.7486L159.789 17.0371L159.519 17.1629C159.319 17.2574 158.986 17.3151 158.648 17.1839L158.342 17.0685L158.257 16.7538C158.02 15.8726 157.539 15.4687 156.705 15.4425C155.252 15.411 152.913 16.5964 150.584 18.5582C148.34 20.4518 146.56 22.6653 146.048 24.2022L145.414 26.1115Z" fill="#F2D579"/>
<path d="M122.162 23.8087L123.921 16.9845H123.969L125.775 23.8087H122.162ZM130.96 30.0768V29.4054C130.96 28.734 130.068 29.2638 129.73 28.0889L125.416 13.3442C125.368 13.1292 125.294 12.9875 125.056 12.9875C124.914 12.9875 124.645 13.061 123.44 13.4439C123.129 13.5383 123.007 13.6327 123.007 13.8268C123.007 14.0681 123.198 14.6398 123.298 15.1224L119.564 28.3144C119.3 29.2743 118.334 28.7445 118.334 29.4159V30.0873H122.094V29.4159C122.094 28.7445 121.08 29.2743 121.08 28.3878C121.08 27.5958 121.465 26.4471 121.83 25.0623H126.165C126.429 26.3054 127.132 28.0784 127.132 28.5819C127.132 29.2743 126.049 28.7498 126.049 29.4212V30.0926H130.96V30.0768Z" fill="#061F4E"/>
<path d="M80.697 30.0769H75.7805V29.4055C75.7805 28.7341 76.8631 29.2639 76.8631 28.5663C76.8631 28.0627 76.166 26.2951 75.8967 25.0467L73.7052 16.9794H73.6576L71.5611 25.0467C71.202 26.4367 70.8112 27.5854 70.8112 28.3722C70.8112 29.2587 71.8252 28.7289 71.8252 29.4003V30.0717H68.0652V29.4003C68.0652 28.7289 69.0316 29.2587 69.2956 28.2988L73.0292 15.1068C72.9341 14.6294 72.7388 14.0525 72.7388 13.8112C72.7388 13.6223 72.8602 13.5227 73.1718 13.4283C74.3758 13.0454 74.6399 12.9719 74.7877 12.9719C75.0307 12.9719 75.0993 13.1135 75.1468 13.3286L79.4613 28.0732C79.7993 29.2482 80.6918 28.7184 80.6918 29.3898V30.0769H80.697Z" fill="#061F4E"/>
<path d="M80.5703 13.3232V13.9474C80.5703 14.6188 81.6318 14.1415 81.6318 15.2378V28.1623C81.6318 29.2638 80.5703 28.7865 80.5703 29.4579V30.0821H84.0874V29.4579C84.0874 28.7865 83.0259 29.269 83.0259 28.1623V15.5263H83.0734L86.8334 30.0821H88.5233L92.0668 15.3374H92.1407V28.1675C92.1407 29.269 91.0792 28.7917 91.0792 29.4631V30.0873H95.9007V29.4631C95.9007 28.7917 94.8392 29.2743 94.8392 28.1675V15.2378C94.8392 14.1363 95.9007 14.6136 95.9007 13.9474V13.3232H91.3697L88.3596 25.5553H88.3121L85.1541 13.3232H80.5703Z" fill="#061F4E"/>
<path d="M99.423 23.8087L101.182 16.9845H101.229L103.035 23.8087H99.423ZM108.216 30.0768V29.4054C108.216 28.734 107.323 29.2638 106.985 28.0889L102.671 13.3442C102.623 13.1292 102.549 12.9875 102.312 12.9875C102.169 12.9875 101.9 13.061 100.696 13.4439C100.384 13.5383 100.263 13.6327 100.263 13.8268C100.263 14.0681 100.453 14.6398 100.553 15.1224L96.8196 28.3144C96.5555 29.2743 95.5891 28.7445 95.5891 29.4159V30.0873H99.3491V29.4159C99.3491 28.7445 98.3352 29.2743 98.3352 28.3878C98.3352 27.5958 98.7207 26.4471 99.0851 25.0623H103.421C103.685 26.3054 104.387 28.0784 104.387 28.5819C104.387 29.2743 103.304 28.7498 103.304 29.4212V30.0926H108.216V30.0768Z" fill="#061F4E"/>
<path d="M140.482 25.8438C139.832 28.1413 138.602 29.1694 136.891 29.1694C134.578 29.1694 132.819 27.4699 132.819 21.8469C132.819 15.5263 134.99 13.9947 136.532 13.9947C140.339 13.9947 138.655 19.1193 140.603 19.1193H141.232V13.7062H140.244C140.123 13.9212 139.98 14.0419 139.764 14.0419C139.378 14.0419 138.438 12.9875 136.294 12.9875C132.196 12.9875 129.788 16.8638 129.788 21.7C129.788 27.0136 132.149 30.486 136.537 30.4125C139.114 30.4125 140.635 29.3582 141.501 26.3684L140.482 25.8438Z" fill="#061F4E"/>
<path d="M77.2011 27.2811C77.2011 27.2811 72.7916 24.7371 66.6235 24.0447V22.7124C72.9289 23.5359 77.2539 26.2478 77.2539 26.2478L77.2011 27.2811Z" fill="#061F4E"/>
<path d="M63.059 23.8822C62.4359 23.8927 61.8021 23.9294 61.1632 23.9923C54.9212 24.5903 52.6715 29.374 53.8861 33.2766C55.2592 37.6879 62.1348 38.0655 63.7825 38.0446L63.7297 38.2596C63.7297 38.2596 51.478 40.0378 50.4483 31.4512C49.8674 26.6098 54.7997 22.8489 61.7969 22.5132C62.2246 22.4922 62.6471 22.4817 63.0643 22.4817V23.8822H63.059Z" fill="#061F4E"/>
<path d="M60.577 12.678C59.9749 12.678 59.4944 12.4892 59.0561 12.3423L59.0297 12.3685V17.1785H59.6792C60.8833 17.1785 60.1386 13.8267 62.4992 13.8267H63.4867V32.4581C63.4867 33.5596 62.4253 33.0823 62.4253 33.7537V34.3779H67.2467V33.7537C67.2467 33.0823 66.1853 33.5649 66.1853 32.4581V13.8267H67.1728C69.5333 13.8267 68.7887 17.1785 69.9928 17.1785H70.6423V12.3685L70.6159 12.3423C70.1829 12.4839 69.7023 12.678 69.095 12.678H60.577Z" fill="#061F4E"/>
<path d="M145.969 30.6801C145.969 31.7816 147.03 31.3043 147.03 31.9757V32.5998H142.198V31.9757C142.198 31.3043 143.26 31.7816 143.26 30.6801V15.1014C143.26 13.9999 142.198 14.4772 142.198 13.8058V13.1816H147.03V13.8058C147.03 14.4772 145.969 13.9999 145.969 15.1014V30.6801Z" fill="#061F4E"/>
<path d="M148.451 18.8572L153.953 30.5962C154.576 31.8866 155.691 31.2414 155.691 31.918V32.5894H149.972V31.918C149.972 31.2466 151.081 31.6295 151.081 30.9109C151.081 30.6487 147.247 22.4607 146.592 21.0812L148.451 18.8572Z" fill="#061F4E"/>
<path d="M145.092 22.9012C148.007 17.1628 153.642 13.2603 156.129 12.9088C159.382 12.4525 159.556 15.4056 159.24 16.5806C159.24 16.5806 159.081 16.6592 158.88 16.5806C157.396 11.1044 146.909 19.5442 145.435 23.9975L145.092 22.9012Z" fill="#061F4E"/>
<path d="M73.6048 34.8919H74.492C74.8775 34.8919 74.9884 35.0441 74.9884 35.2434C74.9884 35.4794 74.8141 35.5948 74.5343 35.5948H73.5995V34.8919H73.6048ZM72.781 37.0163C72.781 37.1055 72.7018 37.1265 72.649 37.1317V37.2104H73.7791V37.137C73.6893 37.1317 73.6101 37.1107 73.6101 37.0216V36.1508H74.2385C74.2913 36.261 74.7349 36.9743 74.7349 37.0583C74.7349 37.1212 74.6346 37.1422 74.5765 37.1422V37.2209H75.902V37.137C75.8122 37.137 75.7172 37.0793 75.6749 37.0058L75.094 36.1351C75.5007 35.9777 75.8228 35.726 75.8228 35.2539C75.8228 34.6612 75.3898 34.3464 74.7455 34.3464H72.6384V34.4251C72.7018 34.4304 72.781 34.4513 72.781 34.5405V37.0163Z" fill="#061F4E"/>
<path d="M81.2463 36.6387V35.9935H82.482C82.5348 35.9935 82.5982 36.0197 82.5982 36.1456H82.6774V35.2959H82.5982C82.5982 35.4217 82.5348 35.448 82.482 35.448H81.2463V34.9182H83.1632C83.216 34.9182 83.2794 34.9444 83.2794 35.0756H83.3586V34.2048H83.2794C83.2794 34.3202 83.216 34.3465 83.1632 34.3465H80.1848V34.4251C80.2746 34.4304 80.3696 34.4514 80.3696 34.5405V37.0163C80.3696 37.1055 80.2799 37.1265 80.1848 37.1317V37.2104H83.1104C83.216 37.2104 83.2477 37.2314 83.2953 37.3468H83.3586V36.4761H83.2794C83.253 36.5915 83.1896 36.6387 83.1104 36.6387H81.2463Z" fill="#061F4E"/>
<path d="M87.6467 37.09L87.7207 37.1109C87.7682 37.0637 87.8104 37.0218 87.8738 37.0218C87.9266 37.0218 88.6607 37.2578 89.2891 37.2578C90.2924 37.2578 90.7308 36.812 90.7308 36.3032C90.7308 35.1702 88.5867 35.6475 88.5867 35.1807C88.5867 34.8922 89.1729 34.8922 89.3366 34.8922C89.7749 34.8922 90.2396 35.0653 90.2396 35.1335C90.2396 35.1597 90.2344 35.1859 90.2344 35.2069L90.3189 35.2436L90.7096 34.4201L90.6357 34.3939C90.604 34.4201 90.5618 34.4725 90.4931 34.4725C90.3505 34.4725 89.8119 34.3047 89.1887 34.3047C88.1167 34.3047 87.7312 34.8712 87.7312 35.2751C87.7312 36.3713 89.8753 35.873 89.8753 36.3818C89.8753 36.6336 89.4422 36.6598 89.2785 36.6598C88.7451 36.6598 87.99 36.492 87.99 36.3189C87.99 36.2874 87.9953 36.2664 87.9953 36.2455L87.9108 36.2087L87.6467 37.09Z" fill="#061F4E"/>
<path d="M96.4605 34.997C96.9569 34.997 97.3583 35.2959 97.3583 35.7785C97.3583 36.2611 96.9569 36.5601 96.4605 36.5601C95.9641 36.5601 95.5628 36.2611 95.5628 35.7785C95.5575 35.2959 95.9588 34.997 96.4605 34.997ZM96.4605 34.3098C95.642 34.3098 94.7073 34.7557 94.7073 35.7837C94.7073 36.8118 95.6367 37.2577 96.4605 37.2577C97.2791 37.2577 98.2138 36.8171 98.2138 35.7837C98.2138 34.7504 97.2791 34.3098 96.4605 34.3098Z" fill="#061F4E"/>
<path d="M103.051 34.8919H103.938C104.324 34.8919 104.435 35.0441 104.435 35.2434C104.435 35.4794 104.26 35.5948 103.98 35.5948H103.051V34.8919ZM102.222 37.0163C102.222 37.1055 102.143 37.1265 102.09 37.1317V37.2104H103.22V37.137C103.13 37.1317 103.051 37.1107 103.051 37.0216V36.1508H103.679C103.732 36.261 104.176 36.9743 104.176 37.0583C104.176 37.1212 104.075 37.1422 104.017 37.1422V37.2209H105.343V37.137C105.253 37.137 105.158 37.0793 105.111 37.0058L104.524 36.1351C104.931 35.9777 105.253 35.726 105.253 35.2539C105.253 34.6612 104.82 34.3464 104.176 34.3464H102.069V34.4251C102.132 34.4304 102.211 34.4513 102.211 34.5405V37.0163H102.222Z" fill="#061F4E"/>
<path d="M109.362 34.3465C109.309 34.3465 109.245 34.3202 109.245 34.2048H109.166V35.1542H109.245C109.245 35.0388 109.309 35.0126 109.362 35.0126H110.302V37.0216C110.302 37.1107 110.222 37.1317 110.149 37.137V37.2156H111.331V37.137C111.257 37.1317 111.178 37.1107 111.178 37.0216V35.0126H112.118C112.171 35.0126 112.234 35.0388 112.234 35.1542H112.314V34.2048H112.234C112.234 34.3202 112.171 34.3465 112.118 34.3465H109.362Z" fill="#061F4E"/>
<path d="M157.898 31.4617H157.032V31.682H157.354V32.5894H157.581V31.682H157.898V31.4617ZM159.203 31.4617H158.838L158.611 32.1278H158.606L158.379 31.4617H158.014V32.5894H158.241V31.682H158.247L158.542 32.5894H158.674L158.97 31.682H158.975V32.5894H159.203V31.4617Z" fill="black"/>
</g>
<defs>
<clipPath id="clip0">
<rect width="160" height="48" fill="white"/>
</clipPath>
</defs>
</svg>
